<?xml version="1.0" encoding="UTF-8"?><svg id="Layer_2" xmlns="http://www.w3.org/2000/svg" xmlns:xlink="http://www.w3.org/1999/xlink" viewBox="0 0 166.689 167.01"><defs><filter id="drop-shadow-1" filterUnits="userSpaceOnUse"><feOffset dx="0" dy="7.2"/><feGaussianBlur result="blur" stdDeviation="7.2"/><feFlood flood-color="#000" flood-opacity=".75"/><feComposite in2="blur" operator="in"/><feComposite in="SourceGraphic"/></filter></defs><g id="Layer_2-2"><path d="m80.912,1.807c1.338-2.409,3.527-2.409,4.865,0,1.338,2.41,3.765,2.562,5.394.339,1.628-2.223,3.801-1.948,4.827.61,1.024,2.557,3.413,3.014,5.309,1.012,1.895-2.001,4.015-1.456,4.71,1.21.697,2.667,3.011,3.418,5.143,1.671,2.13-1.748,4.165-.942,4.522,1.791.356,2.733,2.558,3.768,4.891,2.301,2.332-1.466,4.251-.413,4.263,2.343.012,2.757,2.065,4.059,4.563,2.896,2.497-1.162,4.269.124,3.935,2.86-.333,2.736,1.541,4.286,4.166,3.445,2.624-.841,4.22.659,3.545,3.33-.674,2.671.991,4.445,3.7,3.94,2.708-.505,4.104,1.182,3.101,3.748-1.004,2.567.426,4.535,3.176,4.372,2.752-.161,3.924,1.687,2.607,4.107-1.317,2.421-.145,4.553,2.604,4.737,2.749.184,3.682,2.165,2.071,4.401-1.61,2.236-.716,4.499,1.988,5.026,2.705.527,3.381,2.609,1.504,4.626-1.878,2.017-1.273,4.372,1.345,5.234,2.618.863,3.027,3.013.912,4.778-2.117,1.767-1.812,4.179.677,5.363,2.488,1.183,2.626,3.368.306,4.855-2.32,1.486-2.32,3.919,0,5.405,2.32,1.486,2.183,3.671-.306,4.855-2.488,1.184-2.794,3.597-.677,5.363,2.115,1.765,1.706,3.915-.912,4.778-2.618.862-3.223,3.218-1.345,5.234,1.877,2.017,1.201,4.099-1.504,4.626-2.704.528-3.599,2.79-1.988,5.026,1.61,2.236.678,4.217-2.071,4.401-2.75.185-3.922,2.316-2.604,4.737,1.316,2.42.144,4.268-2.607,4.107-2.75-.162-4.18,1.806-3.176,4.372,1.004,2.566-.393,4.254-3.101,3.749-2.709-.505-4.374,1.268-3.7,3.94.675,2.671-.921,4.17-3.545,3.33-2.625-.841-4.499.709-4.166,3.445.334,2.736-1.437,4.022-3.935,2.86-2.498-1.163-4.552.14-4.563,2.896-.012,2.756-1.931,3.81-4.263,2.343-2.333-1.466-4.534-.432-4.891,2.301-.357,2.732-2.393,3.538-4.522,1.791-2.132-1.748-4.445-.997-5.143,1.671-.695,2.666-2.814,3.211-4.71,1.21-1.895-2.001-4.284-1.544-5.309,1.012-1.026,2.559-3.199,2.833-4.827.61-1.629-2.224-4.056-2.071-5.394.339-1.338,2.409-3.527,2.409-4.865,0-1.337-2.41-3.765-2.562-5.394-.339-1.629,2.223-3.801,1.948-4.827-.61-1.024-2.557-3.413-3.014-5.309-1.012-1.894,2.001-4.015,1.456-4.711-1.21-.697-2.667-3.01-3.418-5.141-1.671-2.13,1.748-4.165.942-4.522-1.791-.357-2.733-2.558-3.768-4.891-2.301-2.333,1.466-4.251.413-4.263-2.343-.012-2.756-2.065-4.059-4.563-2.896-2.498,1.162-4.269-.124-3.935-2.86.333-2.736-1.54-4.286-4.165-3.445-2.624.841-4.22-.659-3.545-3.33.674-2.671-.991-4.445-3.7-3.94-2.708.505-4.103-1.182-3.101-3.749,1.004-2.566-.425-4.534-3.177-4.372-2.751.161-3.923-1.687-2.606-4.107,1.318-2.421.146-4.553-2.603-4.737-2.75-.184-3.682-2.165-2.071-4.401,1.61-2.236.715-4.499-1.99-5.026-2.705-.527-3.381-2.609-1.502-4.626,1.877-2.017,1.272-4.372-1.345-5.234-2.617-.863-3.027-3.013-.911-4.778,2.117-1.767,1.811-4.179-.678-5.363-2.488-1.183-2.625-3.368-.305-4.855,2.32-1.486,2.32-3.919,0-5.405-2.32-1.486-2.183-3.671.305-4.855,2.489-1.184,2.794-3.597.678-5.363-2.116-1.765-1.706-3.915.911-4.778,2.618-.862,3.222-3.218,1.345-5.234-1.878-2.017-1.203-4.099,1.502-4.626,2.705-.528,3.6-2.79,1.99-5.026-1.611-2.236-.679-4.217,2.071-4.401,2.749-.185,3.921-2.316,2.603-4.737-1.317-2.42-.144-4.268,2.606-4.107,2.751.162,4.181-1.806,3.177-4.372-1.003-2.566.392-4.253,3.101-3.748,2.709.505,4.374-1.268,3.7-3.94-.674-2.671.921-4.17,3.545-3.33,2.625.84,4.499-.71,4.165-3.445-.333-2.735,1.437-4.021,3.935-2.859,2.498,1.163,4.552-.14,4.563-2.896.012-2.756,1.93-3.81,4.263-2.343,2.333,1.466,4.534.432,4.891-2.301.357-2.732,2.393-3.538,4.522-1.791,2.131,1.747,4.444.996,5.141-1.671.696-2.666,2.816-3.211,4.711-1.21,1.896,2.001,4.285,1.544,5.309-1.012,1.026-2.559,3.198-2.833,4.827-.61,1.628,2.224,4.056,2.071,5.394-.339Z" filter="url(#drop-shadow-1)"/></g><g id="Layer_4"><g opacity=".7"><path d="m17.334,59.551c-.004.03-.033.039-.067.027-.175-.062-.28-.055-.31.03-.016.045.01.099.072.121.119.042.348-.066.741-.276.413-.228.706-.283,1.067-.154.485.173.873.585.627,1.274-.135.378-.525.812-1.474.474-.028-.01-.044-.035-.037-.058l.18-.63c.008-.022.031-.033.056-.031.207.061.355.038.386-.047.018-.051-.011-.093-.068-.113-.135-.048-.427.089-.805.311-.269.165-.646.259-1.07.108-.502-.179-.738-.715-.558-1.218.241-.677.869-.778,1.428-.579.028.01.041.046.031.075l-.2.686Z" fill="#fff"/><path d="m17.368,58.535c-.513-.201-.713-.723-.488-1.296.225-.574.721-.823,1.267-.609l1.582.62c.518.203.718.725.494,1.298-.223.568-.731.818-1.244.618l-1.609-.63Zm1.805-.295c.067.026.122.016.146-.045.024-.062-.009-.107-.076-.133l-1.326-.52c-.061-.024-.125-.01-.146.045-.024.062.016.109.077.133l1.326.52Z" fill="#fff"/><path d="m21.847,54.557c.033.015.053.043.039.076l-.323.734c-.012.028-.049.038-.082.023l-2.218-.977c-.083-.036-.135-.006-.154.037-.02.044-.006.102.077.138l2.224.979c.033.015.048.041.033.073l-.33.75c-.012.027-.038.042-.071.028l-2.235-.984c-.082-.036-.129-.004-.148.04-.02.044-.011.1.071.136l2.246.989c.022.01.031.033.019.061l-.331.75c-.009.022-.033.031-.061.019l-3.199-1.408c-.022-.01-.034-.042-.022-.069l.316-.718c.019-.043.269.027.286-.011.007-.016.003-.038-.018-.08-.06-.131-.088-.32-.011-.495.087-.197.227-.292.38-.33.05-.01.077-.025.084-.042.007-.017.002-.051-.015-.085-.053-.147-.102-.333-.01-.541.123-.279.479-.404.796-.264l2.657,1.169Z" fill="#fff"/><path d="m19.637,53.275c-.634-.312-.63-.917-.416-1.352.298-.607.937-.726,1.463-.468l.328.161c.027.013.038.045.024.072l-.441.897c-.01.021,0,.04.027.053l.843.415c.086.042.137.021.16-.028.019-.038.01-.102-.07-.142l-.328-.161c-.021-.011-.035-.038-.019-.07l.378-.674c.021-.029.053-.041.085-.024l.344.169c.688.338.659.911.417,1.405-.283.575-.852.702-1.464.401l-1.332-.655Zm.626-.812c.016.008.035-.003.042-.019.061-.124.069-.14.042-.153-.344-.169-.384-.182-.426-.096-.021.043-.007.096.073.136l.269.132Z" fill="#fff"/><path d="m21.017,50.572c-.021-.011-.042-.009-.054.012-.06.111-.065.121-.102.102l-.771-.412c-.016-.008-.026-.027-.02-.038.064-.122.07-.132.033-.152l-.464-.249c-.021-.011-.028-.035-.017-.057l.406-.76c.028-.053.039-.047.076-.027l.444.237c.031.017.056.009.07-.017.087-.164.096-.179.133-.16l.766.409c.021.012.029.036.017.057-.087.164-.099.185-.056.207l1.388.743c.021.011.051.007.059-.009.099-.185.11-.206.142-.189.301.161.823.44.536.979-.169.317-.489.444-1.123.106l-1.462-.782Z" fill="#fff"/><path d="m20.813,48.93c-.016-.009-.034-.026-.021-.047l.408-.718c.015-.026.037-.028.06-.021l.846.33c.024.006.047.013.054.003.003-.005-.012-.028-.03-.044l-.708-.596c-.008-.011-.021-.025-.008-.046l.391-.687c.012-.021.036-.028.039-.02l3.422,2.918c.018.017.03.044.015.07l-.379.666c-.015.026-.044.03-.067.01l-1.175-.985c-.023-.02-.049-.035-.078-.044l-2.767-.789Z" fill="#fff"/><path d="m22.353,46.197c.012-.021.171.006.187-.019.006-.01.005-.032-.001-.078-.009-.111.021-.24.093-.358.156-.256.514-.438,1.352.076l1.068.653c.777.476.784.923.625,1.184-.072.118-.172.189-.286.226-.041.01-.058.014-.064.024-.003.005,0,.022.032.041l.818.5c.025.016.039.052.023.077l-.407.665c-.016.026-.048.034-.074.018l-3.742-2.29c-.025-.016-.03-.054-.018-.074l.394-.644Zm2.167,1.234c.077.047.158.041.192-.016.028-.046-.005-.095-.062-.129l-1.283-.785c-.025-.016-.092-.056-.133.01-.012.021-.018.052-.014.069.01.041.031.075.072.1l1.227.75Z" fill="#fff"/><path d="m23.902,45.538c-.591-.387-.513-.987-.247-1.393.371-.565,1.019-.605,1.51-.284l.305.2c.025.016.032.049.016.074l-.548.836c-.013.02-.005.04.021.056l.786.515c.08.053.133.037.163-.008.023-.035.022-.1-.053-.149l-.305-.2c-.02-.013-.03-.041-.011-.071l.458-.623c.024-.027.058-.034.088-.014l.32.21c.641.42.542.985.24,1.445-.351.536-.932.592-1.502.218l-1.241-.813Zm.721-.729c.015.01.035.001.044-.014.076-.115.085-.13.061-.146-.32-.21-.359-.228-.411-.148-.026.04-.019.095.056.144l.25.164Z" fill="#fff"/><path d="m24.015,41.961c-.044-.031-.044-.062-.02-.096l.493-.686c.024-.034.049-.038.079-.017l.886.636c.034.024.051.021.055.017.003-.005.007-.032.005-.07-.019-.139.002-.301.104-.442.147-.205.457-.38.837-.107l2.39,1.715c.014.011.019.036.008.05l-.482.672c-.014.02-.039.023-.059.009l-2.015-1.446c-.073-.053-.125-.031-.153.008s-.032.095.042.148l2.01,1.443c.02.014.028.042.015.062l-.5.696c-.014.02-.052.021-.072.007l-3.621-2.6Z" fill="#fff"/><path d="m26.899,41.194c-.56-.431-.437-1.023-.142-1.407.412-.536,1.062-.527,1.527-.17l.29.222c.024.019.028.052.01.076l-.609.792c-.015.019-.007.04.016.058l.745.573c.076.058.13.047.163.004.026-.033.03-.098-.041-.153l-.29-.222c-.019-.015-.027-.043-.005-.072l.504-.586c.026-.025.06-.029.088-.007l.304.233c.607.467.467,1.023.131,1.459-.39.508-.973.52-1.514.104l-1.177-.904Zm.774-.673c.014.011.035.004.045-.01.084-.109.095-.124.071-.142-.304-.233-.341-.254-.399-.178-.029.038-.026.093.045.147l.237.183Z" fill="#fff"/><path d="m27.615,38.764c-.023-.019-.03-.04-.014-.058l.533-.654c.023-.028.198.061.217.037.007-.009.006-.026-.01-.054-.074-.137.005-.243.122-.387.012-.014.037-.017.056-.001l.668.545c.019.015.024.036.006.059-.193.237-.144.432.232.738l1.507,1.23c.023.019.027.053.008.076l-.553.678c-.015.019-.041.021-.063.002l-2.709-2.21Z" fill="#fff"/><path d="m29.379,38.059c-.535-.461-.379-1.045-.062-1.412.441-.512,1.09-.467,1.534-.084l.276.238c.023.02.025.053.006.076l-.652.757c-.016.018-.01.039.013.059l.711.613c.073.062.127.054.163.013.027-.032.035-.096-.033-.154l-.276-.238c-.019-.016-.025-.045-.001-.072l.536-.557c.028-.023.062-.026.089-.002l.29.25c.58.5.409,1.047.049,1.464-.418.485-1,.464-1.517.019l-1.124-.969Zm.81-.628c.014.012.035.006.046-.008.09-.104.102-.118.079-.137-.29-.25-.326-.273-.388-.2-.031.036-.031.091.037.15l.227.195Z" fill="#fff"/><path d="m110.516,18.414c-.038-.017-.026-.044.086-.302.188-.434.691-.679,1.264-.431.604.262.774.786.589,1.214l-.646,1.489c-.019.044-.002.051.119.104.021.01.028.039.02.061l-.148.341c-.116.269-.49.485-.798.352-.253-.11-.316-.235-.344-.397-.011-.05-.022-.068-.033-.073-.006-.002-.032,0-.085.029-.096.056-.272.104-.465.02-.23-.1-.488-.439-.25-.989l.176-.406c.188-.434.579-.539.937-.534.475.004.522-.047.606-.239.033-.077.017-.13-.033-.151-.088-.038-.102-.005-.211.248-.013.028-.041.035-.069.022l-.714-.355Zm.615,1.187c.01-.022.006-.043-.014-.058-.033-.015-.165-.013-.217.108l-.177.406c-.028.066.004.112.048.131s.1.011.128-.055l.231-.533Z" fill="#fff"/><path d="m111.687,21.525c-.021-.01-.033-.042-.018-.075l1.494-3.149c.011-.021.034-.03.056-.02l.676.32c.037.018-.027.266-.005.276.005.002.019.002.053-.015.156-.078.287-.102.514.005.265.126.432.457.258.824l-1.254,2.641c-.008.016-.023.022-.04.014l-.745-.354c-.021-.01-.03-.034-.02-.056l1.048-2.209c.039-.081.009-.128-.035-.149-.043-.021-.099-.014-.138.067l-1.051,2.215c-.01.021-.026.027-.053.014l-.74-.351Z" fill="#fff"/><path d="m114.653,22.975c-.026-.014-.012-.174-.033-.185-.01-.005-.031-.003-.083.004-.104.021-.235,0-.357-.062-.267-.137-.475-.479-.026-1.352l.57-1.113c.416-.81.855-.854,1.132-.711.123.063.205.152.241.265.013.04.023.059.034.064.005.002.021-.002.037-.035l.479-.932c.014-.027.049-.042.075-.029l.692.355c.026.014.04.041.026.067l-2.043,3.983c-.014.026-.052.034-.073.023l-.671-.344Zm1.067-2.251c.041-.08.022-.163-.03-.19-.048-.024-.094.013-.121.066l-.686,1.336c-.017.032-.052.101.018.137.021.011.048.011.072.003.032-.01.069-.031.094-.079l.653-1.273Z" fill="#fff"/><path d="m118.217,22.245c-.029-.009-.033-.039-.015-.07.091-.161.102-.265.023-.309-.042-.024-.099-.008-.131.049-.062.109.006.354.145.776.154.444.157.742-.031,1.075-.253.447-.725.758-1.359.398-.349-.197-.707-.655-.213-1.529.015-.026.042-.038.063-.026l.587.285c.021.012.028.036.021.06-.096.193-.098.343-.02.387.047.026.093.005.122-.047.071-.125-.015-.435-.168-.844-.116-.292-.145-.68.077-1.07.262-.463.828-.603,1.292-.341.624.354.615.988.324,1.503-.015.026-.053.032-.079.017l-.64-.314Z" fill="#fff"/><path d="m119.223,22.449c.286-.47.835-.578,1.361-.257.526.321.687.853.381,1.354l-.884,1.452c-.289.476-.838.583-1.364.262-.521-.317-.681-.863-.394-1.333l.899-1.477Zm-.021,1.83c-.037.062-.037.118.02.152s.106.009.144-.053l.741-1.216c.034-.056.031-.121-.02-.152-.056-.035-.109-.004-.144.052l-.741,1.216Z" fill="#fff"/><path d="m122.391,27.551c-.021.03-.052.045-.082.025l-.668-.443c-.025-.017-.028-.055-.009-.085l1.341-2.021c.05-.075.03-.131-.01-.158-.04-.026-.1-.023-.149.052l-1.345,2.026c-.02.03-.048.04-.078.02l-.684-.454c-.024-.016-.035-.044-.015-.075l1.351-2.036c.05-.075.026-.126-.014-.153-.04-.026-.096-.028-.146.047l-1.357,2.046c-.014.02-.039.025-.063.008l-.684-.454c-.02-.013-.025-.038-.009-.063l1.934-2.914c.014-.02.047-.027.072-.01l.653.434c.04.026-.072.261-.038.284.016.01.037.01.082-.004.139-.037.33-.032.49.074.18.119.249.273.26.432.002.051.012.08.026.089.016.01.05.012.087,0,.154-.027.345-.044.534.082.255.168.317.541.125.83l-1.605,2.42Z" fill="#fff"/><path d="m124.004,25.574c.414-.573,1.01-.467,1.402-.183.549.397.559,1.047.215,1.522l-.214.296c-.018.024-.051.03-.075.012l-.811-.586c-.02-.014-.04-.006-.058.018l-.551.762c-.056.078-.043.131,0,.163.033.024.099.027.151-.046l.214-.296c.014-.02.042-.028.071-.007l.602.487c.025.026.031.06.01.088l-.225.311c-.449.621-1.01.497-1.456.174-.519-.375-.548-.958-.148-1.512l.871-1.203Zm.695.754c-.011.015-.003.035.012.045.111.081.126.091.144.067.225-.311.244-.348.167-.404-.039-.028-.094-.024-.146.049l-.176.243Z" fill="#fff"/><path d="m126.438,27.405c.016-.019.017-.04-.002-.055-.1-.077-.108-.084-.083-.117l.537-.688c.011-.014.031-.021.041-.014.108.084.118.092.144.059l.323-.415c.015-.019.04-.022.059-.007l.68.53c.047.037.039.046.014.079l-.309.396c-.022.028-.02.053.004.072.146.114.161.125.135.158l-.533.684c-.015.019-.04.022-.059.007-.146-.114-.165-.129-.194-.091l-.967,1.24c-.015.019-.016.049-.002.06.165.129.185.144.162.172-.209.269-.573.736-1.055.36-.282-.221-.354-.557.087-1.123l1.019-1.306Z" fill="#fff"/><path d="m128.102,27.49c.012-.014.031-.028.05-.013l.638.524c.023.019.021.041.011.063l-.468.777c-.011.022-.021.045-.013.052.005.004.029-.007.049-.021l.707-.597c.013-.005.028-.015.047,0l.61.501c.019.015.021.041.013.041l-3.456,2.876c-.02.015-.049.022-.072.003l-.592-.486c-.022-.019-.021-.049.002-.068l1.171-.99c.023-.02.042-.042.057-.069l1.247-2.592Z" fill="#fff"/><path d="m130.526,29.467c.018.016-.036.168-.014.188.009.008.03.011.077.012.111.01.233.061.337.152.225.197.343.58-.305,1.318l-.826.941c-.601.684-1.043.615-1.272.414-.104-.091-.157-.202-.173-.32-.003-.042-.004-.059-.013-.067-.005-.004-.021-.003-.046.024l-.632.72c-.02.022-.058.029-.08.01l-.585-.514c-.022-.02-.025-.054-.005-.076l2.893-3.295c.02-.023.058-.021.076-.005l.567.498Zm-1.586,1.924c-.06.068-.066.149-.018.192.041.036.095.011.138-.039l.992-1.13c.02-.022.071-.081.013-.132-.019-.016-.049-.027-.065-.025-.042.002-.079.018-.111.054l-.948,1.08Z" fill="#fff"/><path d="m130.926,31.118c.482-.515,1.06-.335,1.413-.004.493.462.421,1.108.02,1.535l-.249.267c-.021.021-.055.023-.076.002l-.729-.683c-.018-.016-.039-.011-.059.01l-.643.685c-.065.07-.06.125-.021.162.031.029.095.04.156-.026l.249-.266c.017-.018.046-.022.072.002l.534.558c.022.029.023.063,0,.089l-.262.279c-.523.559-1.063.365-1.465-.012-.467-.438-.422-1.019.044-1.516l1.015-1.082Zm.594.835c-.012.013-.007.034.006.046.101.094.113.106.134.084.262-.279.286-.313.216-.379-.034-.033-.09-.035-.151.03l-.204.218Z" fill="#fff"/><path d="m134.423,31.832c.039-.038.068-.033.098-.003l.592.603c.029.03.029.055.004.081l-.778.764c-.029.029-.029.046-.025.05.004.004.029.013.067.018.14.005.296.054.418.177.176.18.296.515-.037.843l-2.099,2.06c-.013.013-.038.012-.051,0l-.579-.589c-.017-.017-.017-.042,0-.06l1.769-1.737c.064-.063.052-.118.019-.152s-.089-.047-.152.016l-1.765,1.733c-.018.017-.047.021-.063.003l-.601-.611c-.017-.017-.012-.055.005-.072l3.179-3.122Z" fill="#fff"/><path d="m134.69,34.795c.521-.479,1.084-.256,1.412.101.459.499.339,1.138-.093,1.536l-.27.248c-.021.02-.056.019-.076-.003l-.678-.736c-.016-.018-.037-.014-.06.006l-.692.637c-.07.065-.068.121-.032.16.029.031.092.046.158-.015l.269-.248c.018-.017.048-.02.072.007l.492.598c.021.03.019.064-.008.088l-.282.26c-.564.52-1.089.286-1.463-.12-.434-.472-.347-1.049.156-1.512l1.094-1.006Zm.532.878c-.014.012-.01.034.002.047.094.102.105.115.128.094.282-.26.309-.292.244-.363-.033-.036-.088-.042-.153.019l-.221.203Z" fill="#fff"/><path d="m136.957,35.907c.022-.02.044-.022.06-.004l.555.637c.023.027-.093.185-.073.208.008.009.024.01.055,0,.148-.049.239.046.361.186.012.014.01.039-.008.055l-.65.567c-.019.016-.04.019-.06-.004-.2-.23-.401-.214-.768.104l-1.468,1.279c-.022.02-.056.018-.076-.005l-.574-.659c-.016-.018-.014-.043.009-.063l2.638-2.299Z" fill="#fff"/><path d="m137.353,37.772c.546-.448,1.095-.195,1.402.18.43.522.274,1.154-.179,1.526l-.282.232c-.023.019-.057.016-.075-.007l-.635-.772c-.016-.019-.037-.017-.06.002l-.727.597c-.073.061-.075.116-.041.157.027.033.089.051.158-.006l.282-.231c.019-.015.048-.017.071.011l.457.623c.019.031.016.065-.013.088l-.296.243c-.592.486-1.102.224-1.451-.202-.406-.495-.287-1.065.24-1.499l1.146-.942Zm.481.906c-.014.011-.012.033,0,.046.088.106.1.121.122.102.296-.243.325-.274.264-.349-.03-.037-.084-.046-.154.011l-.23.19Z" fill="#fff"/><path d="m144.34,118.639c.022-.036.048-.021.289.124.404.244.58.775.26,1.309-.339.564-.881.664-1.28.424l-1.39-.836c-.041-.023-.05-.009-.118.104-.013.021-.042.024-.062.012l-.317-.191c-.252-.15-.416-.55-.244-.837.142-.235.274-.282.438-.288.052-.004.071-.014.077-.023.003-.005.005-.031-.018-.087-.043-.103-.066-.284.042-.464.129-.215.5-.426,1.013-.117l.379.229c.405.243.457.645.405.997-.065.47-.021.524.157.632.072.043.127.034.154-.012.049-.082.019-.101-.217-.242-.026-.016-.029-.045-.014-.07l.445-.661Zm-1.256.452c.021.013.042.012.06-.006.019-.031.034-.161-.079-.229l-.379-.229c-.062-.037-.112-.012-.137.029s-.023.098.038.135l.497.299Z" fill="#fff"/><path d="m141.102,119.398c.013-.021.046-.027.076-.008l2.927,1.895c.02.013.025.037.013.058l-.406.628c-.023.035-.26-.062-.273-.041-.003.005-.004.018.008.055.057.164.063.297-.073.508-.159.246-.509.369-.851.148l-2.454-1.59c-.016-.01-.019-.026-.01-.041l.449-.693c.013-.02.037-.025.058-.012l2.054,1.328c.075.049.126.025.152-.015.025-.04.026-.097-.049-.146l-2.059-1.332c-.02-.014-.023-.029-.007-.055l.445-.688Z" fill="#fff"/><path d="m139.271,122.155c.018-.024.174.011.188-.009.007-.01.008-.031.007-.082-.007-.106.03-.233.108-.346.171-.246.536-.407,1.342.15l1.027.711c.747.518.732.959.556,1.214-.078.113-.178.183-.294.204-.042.008-.062.016-.068.025-.004.004,0,.021.029.041l.859.596c.024.018.036.055.019.078l-.442.639c-.017.025-.045.035-.069.018l-3.676-2.545c-.024-.018-.027-.056-.014-.075l.429-.619Zm2.089,1.352c.073.052.158.044.192-.005.03-.044,0-.094-.05-.129l-1.233-.854c-.029-.021-.093-.064-.137,0-.014.021-.018.046-.014.071.007.033.022.073.066.104l1.175.813Z" fill="#fff"/><path d="m139.523,125.794c.013-.027.043-.027.071-.006.148.111.25.136.304.064.029-.039.021-.098-.031-.137-.101-.076-.353-.041-.789.043-.461.094-.756.059-1.062-.172-.411-.311-.657-.818-.218-1.4.241-.32.742-.617,1.544-.012.024.018.032.047.019.066l-.359.545c-.015.02-.04.023-.062.014-.179-.12-.327-.143-.382-.07-.032.043-.017.092.031.128.114.087.433.042.859-.057.305-.077.692-.054,1.051.216.425.32.489.9.169,1.326-.433.572-1.061.481-1.533.125-.023-.018-.024-.057-.007-.08l.396-.594Z" fill="#fff"/><path d="m139.2,126.754c.43.345.465.903.078,1.385s-.936.57-1.393.202l-1.326-1.065c-.435-.349-.47-.907-.083-1.389.383-.477.944-.563,1.374-.218l1.35,1.085Zm-1.813-.259c-.057-.045-.112-.052-.153,0-.042.051-.023.104.033.149l1.111.894c.051.041.115.047.153,0,.041-.051.018-.108-.033-.15l-1.111-.893Z" fill="#fff"/><path d="m133.73,129.223c-.027-.023-.038-.057-.015-.084l.527-.604c.021-.023.059-.021.086.002l1.829,1.595c.067.06.126.046.157.011.032-.037.036-.096-.031-.155l-1.834-1.599c-.027-.023-.033-.053-.01-.08l.539-.619c.02-.021.049-.028.076-.004l1.843,1.605c.068.059.122.043.153.006.031-.035.041-.092-.027-.15l-1.852-1.614c-.018-.016-.02-.041,0-.063l.539-.619c.016-.018.041-.02.063,0l2.638,2.299c.019.016.021.05,0,.072l-.516.592c-.031.036-.249-.105-.277-.074-.012.014-.014.035-.007.081.019.144-.011.332-.137.477-.142.163-.305.212-.462.202-.052-.006-.081,0-.093.014-.012.014-.018.049-.011.086.006.157-.002.349-.151.521-.201.23-.578.243-.84.015l-2.19-1.909Z" fill="#fff"/><path d="m135.467,131.096c.514.486.33,1.063-.004,1.415-.466.492-1.111.416-1.538.012l-.265-.25c-.021-.021-.022-.055-.002-.076l.688-.727c.017-.018.012-.039-.01-.06l-.683-.646c-.069-.065-.125-.061-.162-.021-.028.029-.04.094.025.155l.266.251c.018.018.022.047-.002.072l-.562.532c-.029.022-.062.022-.089,0l-.278-.264c-.557-.527-.359-1.067.02-1.467.441-.466,1.022-.418,1.519.052l1.078,1.021Zm-.84.591c-.013-.013-.034-.008-.046.006-.095.1-.107.112-.086.133.278.264.313.289.379.219.033-.035.036-.09-.029-.151l-.218-.206Z" fill="#fff"/><path d="m134.737,134.582c.037.038.033.067.003.097l-.604.59c-.03.029-.056.029-.08.004l-.762-.781c-.029-.029-.046-.029-.05-.025-.005.004-.014.029-.019.067-.006.14-.054.296-.179.417-.18.176-.516.294-.842-.041l-2.053-2.104c-.013-.013-.013-.038,0-.051l.592-.577c.018-.017.043-.017.06,0l1.73,1.774c.063.064.118.053.152.02s.048-.088-.015-.152l-1.727-1.771c-.017-.018-.021-.047-.004-.063l.613-.598c.018-.017.056-.013.072.005l3.11,3.19Z" fill="#fff"/><path d="m131.764,134.834c.476.522.25,1.083-.108,1.409-.5.455-1.138.332-1.532-.102l-.246-.27c-.021-.021-.019-.056.004-.076l.738-.672c.018-.017.015-.038-.006-.061l-.632-.694c-.064-.071-.12-.069-.159-.033-.031.028-.047.091.014.157l.245.271c.017.018.02.048-.007.071l-.6.488c-.03.021-.064.019-.089-.008l-.258-.283c-.516-.566-.279-1.089.128-1.46.474-.431,1.05-.341,1.509.164l.999,1.098Zm-.88.526c-.013-.014-.033-.01-.047.002-.102.093-.115.104-.095.127.258.283.29.311.361.246.035-.033.042-.088-.019-.154l-.201-.221Z" fill="#fff"/><path d="m130.619,137.111c.02.023.022.045.004.061l-.639.551c-.027.023-.184-.095-.207-.075-.009.008-.01.024,0,.056.048.146-.048.238-.188.359-.014.012-.039.01-.055-.009l-.562-.653c-.016-.018-.018-.039.005-.059.231-.199.216-.399-.101-.767l-1.27-1.473c-.02-.022-.017-.057.006-.076l.662-.57c.018-.016.043-.014.062.009l2.281,2.646Z" fill="#fff"/><path d="m128.773,137.482c.444.548.188,1.095-.188,1.4-.524.426-1.153.268-1.522-.188l-.23-.283c-.019-.023-.016-.057.008-.075l.774-.63c.019-.015.017-.036-.002-.06l-.592-.728c-.061-.074-.115-.076-.157-.043-.032.027-.052.089.005.158l.23.283c.015.019.016.049-.012.07l-.625.454c-.031.019-.065.015-.088-.013l-.241-.297c-.482-.594-.217-1.102.209-1.449.497-.402,1.066-.28,1.496.248l.935,1.15Zm-.907.477c-.012-.015-.033-.013-.047,0-.106.087-.121.098-.102.121.241.297.271.325.346.265.037-.029.048-.084-.009-.153l-.188-.231Z" fill="#fff"/><path d="m55.129,147.743c.038.018.026.045-.092.301-.198.43-.708.664-1.274.404-.599-.275-.759-.805-.563-1.229l.678-1.476c.02-.044.003-.052-.116-.106-.022-.011-.028-.04-.018-.062l.155-.338c.123-.267.502-.475.807-.334.251.114.311.241.335.404.01.051.021.068.032.074.006.002.032,0,.085-.027.098-.055.276-.098.467-.01.229.104.479.451.229.995l-.185.403c-.198.43-.592.526-.949.514-.475-.014-.524.037-.612.227-.035.077-.02.13.029.152.087.04.102.008.217-.243.013-.026.042-.033.069-.021l.707.371Zm-.589-1.201c-.01.021-.007.043.013.059.033.015.164.016.219-.104l.185-.404c.03-.064,0-.112-.044-.133-.044-.02-.1-.012-.13.053l-.243.529Z" fill="#fff"/><path d="m54.03,144.609c.021.01.032.042.016.074l-1.557,3.123c-.011.021-.035.029-.056.019l-.67-.334c-.037-.019.032-.265.011-.276-.005-.002-.019-.002-.054.014-.158.076-.289.098-.514-.016-.263-.131-.423-.465-.242-.828l1.306-2.619c.008-.017.024-.021.04-.014l.739.368c.021.011.029.034.019.056l-1.092,2.191c-.04.08-.01.128.032.149.043.021.099.017.139-.064l1.095-2.196c.01-.021.026-.026.053-.013l.734.366Z" fill="#fff"/><path d="m51.097,143.1c.026.015.008.175.029.186.011.006.032.004.083-.003.104-.018.235.005.356.07.264.142.464.488-.001,1.352l-.593,1.1c-.432.801-.872.835-1.146.688-.121-.065-.201-.156-.235-.27-.012-.041-.022-.06-.033-.065-.005-.003-.021.002-.039.034l-.497.921c-.014.026-.05.041-.076.026l-.684-.368c-.026-.015-.039-.042-.025-.067l2.123-3.938c.014-.027.052-.033.073-.022l.663.357Zm-1.112,2.228c-.042.078-.026.162.026.19.047.025.094-.011.122-.063l.712-1.321c.017-.031.054-.101-.014-.137-.021-.011-.048-.013-.072-.005-.032.01-.07.029-.096.077l-.678,1.259Z" fill="#fff"/><path d="m46.973,143.435c.029.01.032.039.013.07-.096.159-.11.263-.033.309.041.025.099.012.133-.045.065-.107.004-.355-.123-.781-.142-.449-.136-.748.062-1.076.266-.44.747-.738,1.373-.359.343.207.69.676.17,1.537-.016.025-.043.037-.064.023l-.581-.301c-.021-.013-.026-.037-.02-.061.102-.191.108-.342.031-.388-.046-.028-.094-.007-.125.044-.074.123.003.436.145.85.108.297.125.686-.107,1.069-.275.456-.847.58-1.303.304-.615-.371-.589-1.006-.282-1.514.016-.025.054-.03.079-.016l.632.334Z" fill="#fff"/><path d="m45.986,143.199c-.299.462-.85.554-1.367.22-.517-.336-.662-.871-.343-1.363l.923-1.426c.302-.467.854-.559,1.371-.224.512.331.655.88.356,1.343l-.939,1.45Zm.072-1.827c.039-.061.04-.117-.016-.152-.055-.036-.106-.012-.145.049l-.773,1.194c-.036.056-.035.12.015.152.055.036.109.007.146-.048l.773-1.195Z" fill="#fff"/><path d="m42.97,138.003c.021-.029.053-.044.082-.023l.654.465c.024.018.027.055.006.084l-1.403,1.979c-.052.072-.034.13.005.158.039.027.099.025.151-.048l1.406-1.982c.021-.029.049-.038.079-.018l.669.475c.024.018.034.046.013.075l-1.413,1.992c-.052.073-.03.125.009.152.039.028.095.031.147-.041l1.42-2.002c.014-.02.039-.024.063-.007l.669.474c.02.015.024.039.006.064l-2.022,2.852c-.014.02-.047.025-.072.008l-.64-.454c-.039-.028.081-.259.046-.282-.015-.011-.036-.012-.082,0-.141.033-.331.022-.487-.088-.176-.125-.241-.281-.247-.439,0-.052-.009-.08-.024-.09-.015-.012-.049-.014-.086-.003-.155.022-.346.032-.532-.099-.249-.177-.3-.551-.099-.834l1.68-2.367Z" fill="#fff"/><path d="m41.299,139.937c-.431.56-1.023.437-1.407.141-.536-.412-.527-1.062-.17-1.526l.222-.29c.019-.023.052-.027.076-.01l.792.609c.019.015.04.008.058-.016l.573-.746c.058-.075.047-.129.004-.162-.033-.025-.098-.029-.153.041l-.222.289c-.015.02-.043.027-.072.006l-.586-.504c-.025-.026-.029-.061-.007-.088l.233-.305c.467-.607,1.023-.467,1.459-.131.508.391.52.973.104,1.514l-.904,1.178Zm-.673-.774c.011-.015.004-.034-.01-.046-.109-.084-.124-.095-.142-.07-.233.303-.254.34-.178.398.038.029.093.026.147-.045l.183-.237Z" fill="#fff"/><path d="m37.727,139.544c-.035.041-.064.039-.097.013l-.647-.542c-.032-.027-.035-.053-.011-.08l.7-.836c.027-.032.025-.049.021-.053-.004-.004-.03-.01-.069-.012-.14.009-.3-.023-.433-.135-.193-.162-.345-.484-.045-.843l1.888-2.255c.012-.014.037-.016.051-.005l.634.53c.018.016.021.041.005.06l-1.592,1.901c-.058.068-.04.123-.003.153.037.03.093.038.15-.03l1.588-1.896c.015-.019.044-.025.063-.01l.657.55c.018.015.017.054.002.071l-2.861,3.418Z" fill="#fff"/><path d="m37.196,136.628c-.472.525-1.053.357-1.414.033-.503-.451-.445-1.099-.053-1.535l.244-.271c.02-.023.054-.024.076-.004l.744.667c.018.017.039.011.059-.012l.628-.7c.063-.07.057-.125.017-.161-.031-.028-.096-.038-.155.029l-.244.272c-.016.018-.045.023-.072,0l-.547-.547c-.023-.028-.025-.062,0-.089l.256-.285c.512-.57,1.056-.388,1.465-.02.477.428.445,1.01-.011,1.518l-.992,1.105Zm-.612-.824c.012-.013.006-.033-.007-.045-.103-.093-.116-.104-.136-.082-.256.285-.28.32-.208.384.036.032.091.033.151-.033l.2-.224Z" fill="#fff"/><path d="m34.812,135.722c-.021.021-.042.026-.059.01l-.613-.58c-.026-.025.075-.193.054-.214-.009-.009-.026-.008-.055.006-.142.063-.242-.023-.377-.151-.013-.012-.014-.037.003-.055l.593-.627c.017-.017.038-.021.059,0,.222.21.42.175.754-.177l1.339-1.414c.021-.021.055-.022.076-.002l.635.602c.017.017.018.042-.003.063l-2.406,2.54Z" fill="#fff"/><path d="m34.257,133.924c-.5.499-1.072.299-1.415-.045-.478-.479-.383-1.123.033-1.537l.259-.258c.021-.021.055-.021.076,0l.706.708c.017.018.038.014.06-.008l.666-.664c.068-.067.063-.122.025-.16-.029-.029-.093-.043-.157.021l-.258.258c-.017.017-.047.021-.072-.005l-.516-.576c-.021-.029-.021-.063.004-.089l.271-.271c.543-.541,1.076-.328,1.465.062.452.453.388,1.033-.096,1.516l-1.052,1.048Zm-.566-.856c.013-.013.008-.033-.004-.047-.097-.098-.11-.109-.131-.089-.271.271-.297.304-.229.372.034.034.089.039.152-.025l.212-.211Z" fill="#fff"/><path d="m32.144,131.736c-.018.017-.022.037-.006.055.086.093.094.102.063.13l-.642.595c-.013.012-.034.016-.042.007-.094-.101-.102-.11-.133-.081l-.387.358c-.018.017-.043.015-.059-.003l-.587-.633c-.041-.043-.032-.051,0-.08l.369-.342c.026-.025.027-.051.007-.072-.126-.137-.138-.149-.107-.178l.637-.591c.018-.017.043-.015.059.003.126.136.143.153.178.121l1.156-1.072c.018-.016.023-.045.011-.059-.143-.154-.159-.172-.133-.195.251-.232.686-.637,1.102-.188.244.264.261.607-.267,1.096l-1.217,1.129Z" fill="#fff"/><path d="m31.127,130.739c-.414.363-.97.302-1.377-.162-.407-.463-.4-1.02.041-1.406l1.278-1.123c.419-.367.975-.305,1.382.158.403.459.392,1.027-.022,1.391l-1.301,1.143Zm.567-1.742c.054-.047.07-.102.027-.15-.043-.05-.099-.041-.153.007l-1.071.94c-.049.043-.066.105-.027.151.043.05.104.036.153-.007l1.071-.941Z" fill="#fff"/><path d="m29.627,129.025c-.425.35-.979.27-1.37-.206-.391-.477-.367-1.031.086-1.403l1.313-1.079c.43-.354.983-.273,1.375.202.387.473.357,1.039-.068,1.389l-1.336,1.098Zm.624-1.721c.056-.045.073-.099.032-.15-.042-.051-.098-.043-.153.003l-1.101.903c-.051.043-.069.104-.032.15.042.051.103.04.153-.002l1.101-.904Z" fill="#fff"/><path d="m26.793,128.363c-.023.018-.053.019-.072-.005l-.621-.792c-.022-.028-.018-.062.006-.08l2.661-1.926c.028-.021.083-.02.102.004l.447.571c.015.019.013.065-.011.093l-2.512,2.135Zm2.833-3.475c.028-.021.07-.017.092.012l.451.575c.018.023.008.069-.02.091l-.584.459c-.023.018-.074.012-.089-.007l-.454-.58c-.019-.023-.023-.058,0-.077l.604-.473Z" fill="#fff"/></g></g><g id="Layer_5"><g><path d="m24.762,76.214c-.22-.991-.235-1.156-1.004-1.294-.285-.049-.519-.25-.602-.625-.173-.776.479-.977.559-.995l5.302-1.176,3.776,17.026c.219.99.234,1.155,1.003,1.294.285.049.519.25.603.625.172.776-.479.977-.56.995l-5.683,1.26c-.08.018-.755.111-.928-.665-.083-.375.045-.656.282-.821.638-.451.581-.607.362-1.597l-3.111-14.027Zm5.158-4.291l.101-.022c1.305-.29,2.659-.646,4.035-.137,1.542.585,2.551,1.906,3.022,3.937.723,3.07-.506,4.747-2.412,5.844l.012.053c1.864-.048,3.726.269,4.396,3.098l.522,2.356c.054.241.112.79.373.732.321-.071.209-.861.691-.968.261-.058.672.272.755.647.172.776-.271,1.914-.612,2.467-.517.9-1.191,1.275-2.056,1.467-.863.191-1.712.07-2.519-.621-.916-.809-1.278-1.964-1.557-3.222l-.404-1.821c-.273-1.231-.625-2.726-1.865-2.62l-.351-1.579c1.054-.374.999-1.289.708-2.6l-.719-3.239c-.297-1.338-.66-1.932-1.771-2.191l-.351-1.58Z" fill="red"/><path d="m38.832,69.947l5.302-1.176,4.44,20.024-5.301,1.176c-.08.018-.755.111-.927-.665-.083-.375.044-.656.281-.821.638-.451.582-.607.362-1.597l-3.111-14.027c-.22-.991-.235-1.156-1.004-1.294-.284-.049-.519-.25-.602-.625-.172-.776.479-.977.559-.995Zm6.205-1.376l4.479-.993,1.205,5.435c.029.134.122.646-.48.78-.341.076-.501-.17-.69-.549-1.003-2.053-2.318-3.138-4.168-3.12l-.345-1.553Zm1.983,8.94c.778-.48.928-1.61.883-2.667,0-.478.025-.933.447-1.026.622-.138.735.849.783,1.062l1.282,5.782c.048.214.361,1.155-.261,1.293-.422.094-.638-.308-.839-.741-.406-.977-1.02-1.937-1.928-2.044l-.368-1.66Zm2.113,9.53c1.567-.628,2.486-2.377,2.553-4.639.052-.433.077-.888.438-.968.643-.143.761.674.785.782l1.188,5.354-4.619,1.024-.345-1.553Z" fill="red"/><path d="m61.564,85.914l-5.101,1.131c-.441.098-.956.155-1.128-.621-.083-.374.044-.655.281-.82.638-.451.582-.607.362-1.597l-3.111-14.027c-.089-.402-.209-1.134-.626-1.209-.443-.099-.843-.094-.991-.763-.154-.696.33-.888.731-.977l5.141-1.14,4.441,20.024Zm-3.537-20.225c3.401-.81,6.953,1.716,8.727,8.569,1.615,6.242-.952,10.715-4.286,11.455l-.344-1.553c1.177-.486.899-2.025.674-3.042l-2.529-11.404c-.227-1.018-.625-2.53-1.897-2.472l-.344-1.553Z" fill="red"/><path d="m76.842,82.525l-2.391.53-7.439-16.634c-.213-.486-.295-.665-.703-.799-.343-.12-.554-.214-.66-.696-.196-.883.627-1.066,1.089-1.168l4.659-1.033c.441-.098,1.127-.334,1.316.523.202.91-.756.87-.536,1.86.054.241.13.393.249.647l4.167,9.384.249,7.388Zm.197-21.053l5.593,12.774.214,6.947-2.39.53-5.473-12.324-.214-7.424,2.27-.503Zm4.281,7.617l-.164-4.346c-.023-.388-.014-.728-.103-1.129-.309-1.392-1.526-.897-1.746-1.888-.136-.615.262-.816.623-.896l2.59-.574c.382-.084.836-.129.99.567.089.401-.049.544-.274.763-.873.812-.927,1.807-.89,3.203l.223,7.085-.047-.018-1.202-2.767Z" fill="#fff"/><path d="m94.586,75.444c.219.99.234,1.155,1.003,1.294.285.049.52.25.603.625.172.776-.479.977-.559.995l-5.684,1.26c-.08.018-.754.111-.926-.665-.084-.375.043-.656.28-.821.638-.451.582-.607.362-1.597l-3.111-14.027c-.22-.991-.235-1.156-1.003-1.294-.285-.049-.519-.25-.602-.625-.173-.776.479-.977.559-.995l5.683-1.26c.08-.018.755-.111.927.665.083.375-.044.656-.282.821-.637.451-.581.607-.361,1.597l3.111,14.027Zm1.252-6.991l-1.768.392-.345-1.552,1.768-.392-1.348-6.077c-.22-.991-.235-1.156-1.004-1.294-.284-.049-.519-.25-.602-.625-.173-.776.479-.977.559-.995l5.683-1.261c.08-.018.755-.111.927.666.083.375-.044.656-.281.82-.637.45-.581.606-.361,1.597l3.111,14.027c.22.99.235,1.155,1.003,1.294.285.049.519.25.602.625.172.776-.479.977-.559.995l-5.684,1.26c-.08.018-.754.111-.926-.665-.084-.375.044-.656.28-.82.639-.451.583-.607.363-1.597l-1.419-6.398Z" fill="#fff"/><path d="m111.371,71.721c.22.99.235,1.155,1.003,1.294.285.049.519.25.602.625.173.776-.479.977-.559.995l-5.683,1.26c-.08.018-.755.111-.927-.665-.083-.375.044-.656.281-.821.637-.451.582-.607.362-1.597l-3.111-14.027c-.22-.991-.235-1.156-1.004-1.294-.284-.049-.519-.25-.602-.625-.172-.776.479-.977.559-.995l5.684-1.261c.08-.018.754-.111.927.665.083.375-.044.656-.281.821-.638.45-.582.606-.362,1.597l3.111,14.027Z" fill="#fff"/><path d="m110.062,54.148l2.892-.641.344,1.553c-.824,1.222-.713,3.051-.579,4.51.069.602.124,1.32-.438,1.445-.602.133-.811-.522-.835-.629l-1.383-6.238Zm3.795-.842l4.921-1.091,3.776,17.026c.22.99.233,1.155,1.003,1.294.284.049.519.25.602.625.172.776-.479.977-.559.995l-5.684,1.26c-.08.018-.754.111-.926-.665-.084-.375.043-.656.28-.821.638-.451.582-.607.362-1.597l-3.776-17.026Zm10.099,4.305c.023.107.112.79-.49.923-.562.125-.817-.549-1.008-1.124-.496-1.379-1.168-3.083-2.433-3.842l-.345-1.553,2.892-.641,1.384,6.237Z" fill="#fff"/><path d="m124.116,51.03l5.301-1.176,4.441,20.024-5.301,1.176c-.082.018-.756.111-.928-.665-.084-.375.044-.656.281-.821.638-.451.582-.607.362-1.597l-3.111-14.027c-.22-.991-.235-1.156-1.003-1.294-.285-.049-.52-.25-.603-.625-.173-.776.479-.977.56-.995Zm6.204-1.376l4.479-.993,1.205,5.435c.029.134.122.647-.48.78-.341.076-.501-.17-.69-.549-1.003-2.053-2.318-3.138-4.168-3.12l-.345-1.553Zm1.983,8.941c.778-.481.928-1.61.883-2.667,0-.478.025-.933.446-1.026.623-.138.736.849.784,1.062l1.282,5.782c.048.214.361,1.156-.261,1.294-.422.093-.637-.309-.839-.741-.406-.977-1.019-1.937-1.928-2.043l-.368-1.66Zm2.113,9.53c1.567-.629,2.486-2.377,2.554-4.639.051-.433.076-.888.438-.968.643-.143.761.674.784.781l1.188,5.354-4.618,1.024-.345-1.553Z" fill="#fff"/></g><g><path d="m38.341,102.17c-.093.268-.145.414-.078.713.062.279.106.403.25.596l2.484,3.604c.553.821.706.675,1.203.564l.729,1.006c-2.884,3.335-6.505.68-7.08-2.292-.41-2.155.538-4.184,1.804-5.161l.688.97Zm-.28-1.645c-.56-.774-1.024-1.883-1.243-2.868-.527-2.376.851-4.366,2.521-4.737l.592-.064.323,1.456c-.32.228-.438.681-.329,1.173.108.492.369.906.619,1.277l6.325,9.221c.298.428.522.76.948.934.259.102.357.169.434.512.138.62-.323.745-.403.763l-3.789.841-5.998-8.507Zm2.626-7.68c1.05-.053,2.094,1.085,2.393,2.434.247,1.113.002,2.358-.582,3.072l-.671-.974c.309-.585.476-1.048.305-1.82-.162-.728-.606-1.213-1.154-1.406l-.29-1.306Zm4.075,8.799c.084-.378.1-.763.01-1.17-.181-.812-.616-1.031-.702-1.416-.119-.536.487-.917.809-.988.546-.121.825.604.953,1.181.295,1.327.044,2.326-.373,3.407l-.696-1.013Z" fill="#999"/><path d="m45.78,91.211l3.865-.857.461,2.076c-1.103,1.633-.955,4.078-.775,6.029.094.805.166,1.765-.586,1.932-.805.178-1.084-.698-1.115-.841l-1.85-8.337Zm5.074-1.125l6.576-1.458,5.047,22.757c.294,1.324.315,1.545,1.342,1.73.381.066.694.334.806.835.229,1.038-.64,1.306-.748,1.329l-7.597,1.686c-.107.023-1.009.148-1.239-.889-.111-.502.06-.877.376-1.098.853-.602.778-.811.484-2.135l-5.047-22.757Zm13.499,5.753c.032.143.149,1.056-.656,1.234-.752.167-1.092-.734-1.347-1.503-.662-1.844-1.562-4.122-3.252-5.136l-.46-2.076,3.866-.857,1.849,8.337Z" fill="#fff"/><path d="m66.315,90.862c-.294-1.324-.314-1.545-1.341-1.73-.382-.065-.694-.334-.806-.835-.229-1.037.641-1.306.748-1.329l7.086-1.572,5.048,22.757c.294,1.324.314,1.546,1.342,1.73.38.066.693.334.805.835.229,1.038-.64,1.306-.747,1.33l-7.598,1.685c-.107.023-1.009.148-1.238-.889-.111-.501.059-.877.376-1.098.852-.602.777-.811.483-2.135l-4.158-18.749Zm6.896-5.735l.133-.03c1.746-.387,3.555-.863,5.396-.183,2.061.782,3.409,2.547,4.039,5.261.966,4.103-.677,6.345-3.225,7.811l.016.072c2.492-.065,4.98.36,5.875,4.14l.699,3.149c.071.322.149,1.055.499.978.429-.095.279-1.15.924-1.293.349-.077.897.364,1.008.864.23,1.038-.361,2.559-.817,3.298-.69,1.204-1.594,1.705-2.747,1.961-1.155.256-2.288.095-3.367-.83-1.226-1.079-1.709-2.625-2.081-4.307l-.54-2.433c-.365-1.646-.836-3.644-2.494-3.501l-.469-2.111c1.41-.5,1.336-1.724.946-3.477l-.96-4.329c-.396-1.789-.883-2.583-2.367-2.929l-.468-2.111Z" fill="#fff"/><path d="m100.711,107.672c-2.121.471-3.767.798-5.92-.151-2.812-1.253-3.437-2.541-3.833-4.33l-3.763-16.96c-.293-1.324-.314-1.544-1.341-1.73-.381-.065-.693-.334-.805-.835-.23-1.038.64-1.306.746-1.33l7.598-1.685c.107-.024,1.009-.148,1.239.889.111.501-.059.877-.376,1.098-.853.602-.778.811-.484,2.135l3.817,17.211c.079.357.465,3.238,2.652,3.578l.469,2.111Zm.004-22.714c-1.422-4.377-2.831-2.601-3.172-4.14-.246-1.109.87-1.282,1.165-1.347l3.061-.679c.296-.065,1.38-.381,1.626.728.342,1.539-1.687.524-1.123,5.093l2.992,13.489c1.095,5.952-1.624,8.807-3.36,9.23l-.469-2.111c2.247-1.55,2.801-3.625,2.256-6.845l-2.976-13.419Z" fill="#fff"/><path d="m106.007,77.853l7.086-1.572,5.937,26.765-7.087,1.572c-.107.024-1.009.148-1.238-.889-.111-.501.059-.876.375-1.097.854-.602.779-.811.485-2.135l-4.159-18.75c-.293-1.324-.314-1.544-1.342-1.729-.381-.065-.693-.334-.805-.835-.229-1.038.641-1.306.748-1.33Zm8.294-1.84l5.987-1.328,1.611,7.264c.039.179.164.865-.643,1.043-.457.102-.67-.227-.922-.734-1.342-2.743-3.099-4.193-5.574-4.17l-.46-2.076Zm2.651,11.951c1.039-.644,1.24-2.152,1.181-3.565-.002-.638.031-1.246.596-1.372.834-.185.984,1.134,1.047,1.419l1.715,7.729c.064.286.484,1.545-.348,1.729-.564.125-.852-.412-1.121-.991-.545-1.306-1.363-2.588-2.579-2.732l-.491-2.219Zm2.826,12.738c2.094-.839,3.322-3.177,3.412-6.2.068-.579.102-1.187.586-1.294.859-.19,1.018.901,1.049,1.044l1.586,7.157-6.174,1.369-.459-2.076Z" fill="#fff"/></g></g><g id="Layer_7"><g opacity=".7"><circle cx="83.488" cy="83.362" r="76.897" transform="translate(-11.518 153.315) rotate(-81.321)" fill="none" stroke="#fff" stroke-dasharray="0 0 .86 .86" stroke-miterlimit="10" stroke-width=".5"/></g><circle cx="83.488" cy="83.362" r="74.897" transform="translate(-11.519 153.314) rotate(-81.32)" fill="none" opacity=".7" stroke="#fff" stroke-miterlimit="10" stroke-width=".5"/></g></svg>